<?xml version="1.0" encoding="UTF-8"?> <svg xmlns="http://www.w3.org/2000/svg" width="117" height="116" viewBox="0 0 117 116" fill="none"> <g opacity="0.1"> <path d="M69.9002 36.6887C69.5323 34.4472 69.3506 32.3929 68.7946 30.7111C68.2395 28.6558 69.3643 26.7914 69.5561 24.738L69.9304 24.3655C70.3039 24.3664 70.6764 24.7408 70.6755 25.1142C71.2324 26.4226 71.6022 27.9172 72.1591 29.2256C73.2721 32.2158 74.7576 35.5803 73.4419 39.1247C77.7432 36.3345 82.9712 36.3473 87.4551 35.238C88.0158 35.0526 88.3883 35.427 88.2011 35.6133C87.6378 36.9189 88.57 37.4813 88.7544 38.4154C89.3077 41.2175 88.3718 42.1488 85.5724 41.5817C83.1465 41.0157 80.3435 41.9424 77.7267 43.0563L77.913 43.2434C84.4476 43.4462 88.5462 47.1905 92.8301 51.4955C97.8591 56.5492 99.151 62.714 99.8823 69.0642C100.246 73.1728 98.7428 76.9035 96.6802 80.446C93.491 86.5999 88.6245 91.4426 82.8267 95.3494C80.9568 96.4651 79.2722 98.1415 77.4023 99.2572C73.2891 101.488 69.1777 102.971 64.6947 103.707C60.3989 104.257 56.4801 103.314 52.7513 101.064C50.3272 99.751 47.715 98.9977 45.8524 97.126C43.6164 95.2534 42.1291 92.6357 40.4546 90.2043C39.1517 88.5206 38.2223 86.8379 37.4809 84.5955C37.1102 83.4743 36.5514 82.9127 35.0586 82.5357C31.8867 81.5943 29.091 79.5336 26.4816 77.66C25.9228 77.0985 25.1769 76.7232 24.6181 76.1617C22.7537 75.0368 21.4508 73.3532 20.5222 71.297C18.6642 67.5582 17.5531 63.8211 18.1228 59.9015C18.6908 56.7287 18.1366 54.3 17.0236 51.3098C15.539 47.5718 16.1097 43.2787 17.0529 39.36C17.619 36.9341 19.4916 34.6981 21.1771 32.6483C26.795 25.9403 34.0874 21.6637 43.0525 20.5653C48.6558 19.8322 53.6939 21.1515 58.5421 23.7774C62.0847 25.84 65.0648 28.8348 66.9228 32.5737C68.0404 33.6967 68.4102 35.1913 69.9002 36.6887ZM79.3701 58.1843C79.3692 58.5578 78.9949 58.9303 79.3683 58.9312C79.7417 58.9321 80.1161 58.5596 79.9307 57.999C82.3667 54.4573 79.582 47.9154 75.2889 47.3448C74.9155 47.3439 74.7292 47.1567 74.3549 47.5292C74.1668 48.0889 74.5402 48.0898 75.0999 48.2779C77.1497 49.9634 79.0122 51.8351 79.1912 55.0097C79.0022 55.9428 78.9994 57.0631 79.3701 58.1843ZM19.4486 52.2493C22.0837 43.6668 32.3745 34.9163 36.1079 35.2989C34.6114 36.4156 33.3022 37.3459 32.18 38.09C26.7548 42.3712 23.0067 47.9636 21.3094 54.8679C20.7424 57.6673 20.1763 60.0932 20.5424 63.0816C21.27 70.9254 26.4871 75.4194 32.0785 79.5409C35.2467 81.976 39.1664 82.5457 43.0888 81.9952C44.5825 81.9988 46.2634 81.8162 47.5699 82.0062C47.9434 82.0071 48.3168 82.008 48.315 82.7549C48.314 83.1283 48.1269 83.3145 47.7534 83.3136C46.4451 83.8706 45.3238 84.2413 43.831 83.8642C42.5245 83.6742 41.0308 83.6706 39.7242 83.4807C40.0949 84.6019 40.6528 85.5368 41.2106 86.4718C41.9502 89.4611 43.8118 91.7062 46.2341 93.766C49.7748 96.5755 53.5037 98.8252 57.794 100.516C61.5246 102.019 65.6315 102.403 69.1823 101.104C74.6021 99.0636 79.2777 95.9009 82.8368 91.2417C86.3958 86.5825 89.3951 81.7352 90.7172 75.5768C92.0384 69.7918 91.1181 64.3748 88.8903 59.1412C88.1471 57.6457 87.0305 56.1492 85.3523 55.2115C85.1624 56.5181 86.2809 57.2677 85.5322 58.0127C84.9698 58.9449 84.9679 59.6918 84.9661 60.4386C84.9652 60.8121 85.1505 61.3727 84.589 61.9315C84.4018 62.1177 83.8421 61.9296 83.6559 61.7425C83.2834 61.3681 83.2843 60.9947 83.4724 60.435C84.0357 59.1294 82.9246 55.3923 81.8061 54.6427C81.9841 58.1907 79.1775 60.6112 78.2361 63.7831C78.048 64.3427 77.6746 64.3418 77.3012 64.3409C76.7415 64.1528 76.9296 63.5931 76.9305 63.2197C77.3076 61.7269 77.6846 60.2341 77.6892 58.3669C77.6975 55.0061 77.1451 51.8305 73.976 49.7689C73.6034 49.3945 73.4172 49.2074 72.8566 49.3927C70.9894 49.3881 69.4975 48.6376 69.1287 46.7695C68.9452 45.4621 68.201 44.3399 67.6441 43.0316C66.7146 41.3488 65.4108 40.0386 64.2942 38.5422C63.1776 37.0457 61.3131 35.9208 58.8845 36.475C58.3239 36.6604 57.7642 36.4723 57.2036 36.6576C56.8301 36.6567 56.4567 36.6558 56.4576 36.2824C56.4585 35.9089 56.6457 35.7227 56.8329 35.5364C57.3935 35.3511 58.3275 35.1666 59.635 34.9831C57.7724 33.1114 55.9071 32.36 53.6683 31.6076C51.6158 31.0424 49.189 30.8498 46.7612 31.0305C47.6971 30.0992 48.4449 29.7276 49.3789 29.5432C54.4225 28.622 59.0863 30.3139 63.1867 33.3114C64.3052 34.061 65.2383 34.25 66.3586 34.2527C65.6154 32.7572 64.8722 31.2616 63.9418 29.9523C57.9852 22.4691 48.654 20.579 40.6193 22.9867C34.2664 24.8383 28.8439 27.9992 24.1636 33.0291C20.6064 36.9414 18.542 41.2308 18.1558 46.4579C17.965 48.1379 17.586 50.3776 19.4486 52.2493ZM83.7671 92.551C84.8874 92.5537 85.0755 91.994 85.4499 91.6215C88.2574 88.8276 90.6916 86.0329 92.9404 82.6775C97.8124 75.5942 99.8841 68.3173 95.9828 60.2789C94.6826 57.475 93.7568 54.2985 91.5217 52.0525C90.7767 51.3038 90.4051 50.556 89.2857 50.1798C89.8427 51.4882 90.5868 52.6103 91.1437 53.9187C91.5162 54.293 91.5153 54.6665 91.141 55.039C90.9538 55.2252 90.5804 55.2243 90.3941 55.0372C89.6482 54.6619 88.9022 54.2866 88.3425 54.0986C95.7773 67.9338 94.8122 80.8149 83.7671 92.551ZM86.5175 36.9161C82.9703 36.7207 79.793 38.02 76.6165 38.9458C74.3741 39.6871 73.2492 41.5516 71.7509 43.4151C71.5628 43.9747 71.9344 44.7225 72.3069 45.0969C72.8657 45.6584 73.0547 44.7253 73.4291 44.3527C74.3659 43.048 75.6751 42.1177 77.1698 41.7479C80.3462 40.8221 83.3373 39.3357 87.068 40.8385C86.1376 39.5292 85.9541 38.2218 86.5175 36.9161ZM89.0921 52.9801C87.7911 50.5496 86.6772 47.9328 84.0668 46.4327C81.8299 44.9335 79.7774 44.3683 77.1606 45.4822C81.6372 47.3603 85.1771 50.5432 89.0921 52.9801ZM70.4819 27.9145C70.0984 32.0213 71.0224 35.9446 72.1326 40.0551C74.1979 35.3922 71.9665 31.6524 70.4819 27.9145ZM64.4887 35.3684C66.9119 37.0548 68.9598 39.4872 70.2599 42.2911C71.2004 39.4927 68.4083 35.9382 64.4887 35.3684ZM87.6359 37.6658C87.0726 38.9714 87.2579 39.532 88.1892 40.4679C88.1919 39.3476 88.0066 38.787 87.6359 37.6658ZM76.979 43.4279C77.1661 43.2416 77.3524 43.4288 77.3524 43.4288C77.3524 43.4288 77.5396 43.2425 77.3533 43.0553L76.9799 43.0544C77.1661 43.2416 76.979 43.4279 76.979 43.4279Z" fill="#020202"></path> </g> </svg> 