<?xml version="1.0" encoding="UTF-8"?> <svg xmlns="http://www.w3.org/2000/svg" width="148" height="174" viewBox="0 0 148 174" fill="none"> <g opacity="0.1"> <path d="M137.539 56.5355C140.576 59.3721 142.005 63.2094 142.488 67.1633C142.854 68.8696 142.273 70.6925 141.2 71.9193C137.69 76.5111 133.689 80.5068 128.047 82.5155C125.122 83.6056 123.019 85.6891 120.708 87.944C115.47 92.9678 110.437 97.8203 104.87 102.447C96.8712 108.759 88.7083 114.873 80.7515 120.816C76.6701 123.873 73.2869 127.354 69.2054 130.411C65.3302 133.297 61.1268 135.785 56.5953 137.876C54.0414 138.993 51.7734 140.878 49.7116 142.591C47.4858 144.106 45.588 146.018 43.6903 147.931C40.1009 151.584 36.319 150.371 33.5724 146.623C31.154 143.273 30.6709 139.319 32.4934 134.789C36.7149 125.585 41.1003 116.58 45.1578 107.177C46.896 103.388 48.7983 99.7965 50.1663 95.9794C51.3703 91.9635 54.013 88.4271 55.7513 84.6373C57.4895 80.8475 59.762 77.2838 60.1037 72.6444C60.2767 69.4853 60.7779 66.7236 59.2639 63.6264C58.4859 62.2629 59.0668 60.44 59.6056 58.9871C61.386 54.8273 64.5208 51.887 68.518 49.5701C73.1337 46.7393 78.1151 45.6147 83.0168 43.5513C84.582 42.9206 86.269 42.8586 87.7499 42.968C89.9712 43.1322 92.2347 42.9262 94.4982 42.7203C102.029 42.1572 109.48 40.6553 116.754 43.9915C120.657 45.7726 125.058 46.4709 128.507 48.9647C131.957 51.4586 135.49 53.2123 137.539 56.5355ZM73.2495 80.1461C73.2916 79.776 73.3337 79.406 72.9635 79.3786C72.5933 79.3513 72.9214 79.7487 72.8792 80.1187C71.6 81.5169 71.2298 81.4895 70.6579 79.9546C70.0439 78.7898 69.8001 77.6523 71.2434 76.4528C70.4608 76.7682 69.1063 75.5486 69.2658 77.4262C69.3456 78.365 70.0815 80.0986 69.2989 80.414C67.3636 81.0173 68.9242 82.0655 68.4697 82.7783C67.809 83.6624 67.0264 83.9777 65.9579 83.5256C65.4237 83.2995 65.1377 82.5321 64.6035 82.306C63.6478 85.7805 65.0865 86.26 70.7241 85.9302C70.396 85.5328 70.232 85.334 69.9039 84.9366C69.5758 84.5392 69.4539 83.9705 69.8663 83.6278C70.2787 83.2851 70.6489 83.3124 71.1831 83.5385C73.2359 85.1828 72.8702 83.4766 72.9966 82.3664C73.0809 81.6263 73.5354 80.9136 73.2495 80.1461ZM128.304 78.6163C126.659 78.3082 125.759 76.3759 123.866 76.6092C123.289 76.7532 123.21 75.8144 123.252 75.4443C123.505 73.224 124.498 71.0584 126.518 69.715C127.755 68.6869 128.992 67.6588 130.065 66.432C133.078 62.9229 135.383 62.347 138.425 63.5046C138.139 62.7371 137.853 61.9697 137.567 61.2022C137.403 61.0035 137.239 60.8048 137.075 60.6061C132.318 54.8437 126.652 50.5069 119.458 48.1095C117.649 47.6027 115.676 46.8972 114.073 46.219C111.238 44.89 108.112 44.4725 105.272 44.8224C101.115 45.2616 97.043 44.9607 93.0082 45.9687C91.4852 46.2293 89.7982 46.2913 88.1532 45.9832C87.2488 45.7298 86.0959 46.0177 85.1072 46.5044C80.2477 48.1978 75.2241 49.6925 70.6084 52.5233C67.5999 54.3535 65.2898 56.6084 63.7999 59.8568C63.0971 61.1109 63.1347 62.4198 63.7066 63.9547C64.7284 66.4557 65.1739 69.1008 64.3025 71.8352C63.9699 73.1167 63.8435 74.2268 63.8811 75.5357C64.8277 75.419 65.6103 75.1037 66.0648 74.391C66.7255 73.5069 67.18 72.7941 68.3328 72.5061C70.8867 71.3887 73.2766 70.0727 75.9524 69.524C78.9985 69.0028 82.4569 68.1388 85.4984 69.2964C87.3074 69.8032 89.2382 70.8788 91.2112 71.5843C96.1836 73.8175 98.2318 77.1408 97.1498 81.7254C96.6907 84.117 95.3694 85.8852 93.8418 87.8248C91.6536 90.6484 89.1794 92.7046 86.4991 94.9322C81.7569 98.8732 76.6912 100.738 70.6879 99.3614C65.5891 98.2384 62.5521 95.4018 61.8674 89.9403C61.7079 88.0627 61.136 86.5278 60.6484 84.2528C56.6798 91.2363 53.8219 98.3019 50.4296 105.141C51.2122 104.826 51.4184 104.655 51.6667 104.113C52.7398 102.886 53.6488 101.461 54.7218 100.234C55.3825 99.3501 56.6196 98.322 57.646 99.1441C58.8364 100.165 59.9892 99.877 61.3482 99.4177C62.501 99.1297 63.9818 99.2391 65.4627 99.3485C67.8481 99.7114 69.9008 101.356 69.648 103.576C69.4328 107.105 67.985 109.984 65.2625 112.581C63.1586 114.665 60.2766 115.385 57.2727 115.536C56.5322 115.481 55.7496 115.796 54.9671 116.112C53.4019 116.742 52.3334 116.29 51.3491 115.098C49.8728 113.31 49.179 111.206 49.2678 108.787C49.474 108.616 49.5161 108.246 49.1459 108.218C48.7757 108.191 48.7335 108.561 48.6914 108.931C47.2858 111.439 46.2503 113.975 44.8447 116.483C42.9845 119.704 42.357 123.576 40.2906 126.969C39.5878 128.223 38.1024 129.792 38.3041 131.3C38.4636 133.178 37.4327 134.034 36.7299 135.288C36.1911 136.741 35.4883 137.995 36.018 139.9C36.4258 141.237 35.8871 142.689 36.6651 144.053C37.8932 146.383 39.3319 146.862 41.3516 145.519C41.9701 145.005 42.5886 144.491 43.2072 143.977C45.0628 142.435 46.7965 140.324 48.7741 139.35C53.5117 137.088 56.9791 132.866 60.8966 129.611C62.3398 128.411 63.455 126.814 64.9404 125.245C62.9253 124.909 61.8191 123.148 59.7618 123.183C59.0214 123.128 58.5293 122.532 58.4495 121.593C58.3276 121.025 58.7821 120.312 59.3585 120.168C61.0456 120.106 61.7484 118.852 62.9433 118.194C64.7568 117.022 66.4018 117.33 67.7141 118.919C68.5343 119.913 68.5719 121.222 68.6095 122.531C71.9505 119.419 76.0696 117.671 79.4106 114.559C78.7545 113.765 78.014 113.71 77.1472 114.765C76.2803 115.821 75.3337 115.937 75.5444 114.087C75.5865 113.717 75.4225 113.518 75.4646 113.148C73.8288 109.482 75.7311 105.891 79.7237 105.253C81.2467 104.993 82.3995 104.705 83.9226 104.444C85.0754 104.156 86.022 104.039 87.0905 104.492C88.3231 105.142 88.1966 106.253 88.2343 107.561C90.9567 104.964 93.8433 102.565 96.5658 99.9673C95.0849 99.8579 94.1804 99.6045 93.154 98.7823C91.7574 97.9328 92.0057 97.3914 92.9147 95.9659C95.7636 92.2582 100.005 91.0789 103.918 89.5021C104.494 89.3582 105.234 89.4129 105.356 89.9816C105.806 90.9478 106.219 90.6051 106.837 90.091C107.662 89.4056 108.365 88.1515 109.353 87.6648C112.362 85.8347 114.55 83.011 117.024 80.9548C118.674 79.584 118.514 77.7064 116.79 76.4595C116.255 76.2334 115.557 75.8087 115.641 75.0686C115.604 73.7597 114.371 73.1089 113.303 72.6568C106.891 69.9441 99.9837 68.3142 92.8276 67.2258C85.1372 65.9112 77.2783 66.0769 69.4149 67.9215C68.6323 68.2368 67.8076 68.9222 67.1935 67.7574C66.7436 66.7912 67.8964 66.5032 68.5149 65.9892C68.9273 65.6465 69.5037 65.5025 69.916 65.1598C72.4278 64.4125 75.1036 63.8638 77.5733 63.4866C83.0468 62.9581 88.2299 63.341 93.7411 64.1214C100.527 65.1825 106.9 66.5863 113.148 69.1003C116.723 70.484 119.887 72.2104 121.316 76.0476C121.766 77.0138 122.915 78.4047 121.678 79.4328C118.585 82.003 116.312 85.5668 113.056 87.9383C108.52 91.708 104.148 95.6764 99.7337 100.015C94.4949 105.039 89.4623 109.891 83.7314 114.319C82.082 115.69 80.2263 117.232 78.5769 118.603C82.6162 115.916 86.4915 113.03 90.1606 110.316C95.8494 106.258 100.84 101.776 106.365 97.5194C110.901 93.7497 114.944 89.3839 119.522 85.2442C121.917 82.2492 124.925 80.4191 128.304 78.6163C128.632 79.0137 128.838 78.8424 129.044 78.671C128.674 78.6437 128.304 78.6163 128.304 78.6163ZM87.6655 89.6074C90.5098 87.5786 92.2857 85.0977 93.5273 82.3907C94.7268 80.0537 94.3235 77.0386 92.5988 75.7917C88.2871 72.6744 83.3147 70.4411 77.635 71.141C73.8485 71.6076 68.1642 73.9863 66.3884 76.4673C67.8738 74.8978 69.767 74.6645 71.6603 74.4312C72.9771 74.3419 73.5114 74.568 73.9613 75.5341C75.9253 79.5975 75.0915 83.6407 73.1471 87.6018C73.6814 87.8279 74.4218 87.8826 74.9561 88.1087C75.8605 88.3621 76.5167 89.1569 76.2262 90.0683C75.5234 91.3225 76.1374 92.4873 76.2172 93.4262C76.461 94.5637 76.5408 95.5025 75.6739 96.5579C78.27 95.0705 81.48 94.7479 83.8323 92.123C81.4846 93.069 79.4273 93.1036 78.1571 91.1439C76.5588 88.7868 78.8268 86.902 80.0263 84.565C79.0375 85.0517 77.8471 84.0309 77.1443 85.285C76.896 85.8264 76.9757 86.7652 76.0712 86.5118C75.1668 86.2584 75.251 85.5183 75.3353 84.7782C75.4663 81.9891 75.7613 79.3988 76.2624 76.6371C76.8057 73.5053 79.1535 72.5593 81.8248 73.6896C82.8933 74.1417 83.5916 74.5664 84.6601 75.0185C88.6061 76.4296 88.9297 78.5059 85.9167 82.0149C85.4622 82.7277 83.9392 82.9883 84.2251 83.7558C84.8392 84.9206 85.9122 83.6938 86.6526 83.7485C87.5993 83.6319 88.1335 83.858 88.6256 84.4541C89.1178 85.0502 89.0335 85.7903 88.579 86.503C88.8228 87.6405 88.3683 88.3533 87.6655 89.6074ZM55.4156 102.338C54.0566 102.797 54.2161 104.675 53.1852 105.532C51.9481 106.56 51.6155 107.841 51.2829 109.123C50.9082 110.774 51.6441 112.508 52.6284 113.7C53.4486 114.694 54.6856 113.665 55.6323 113.549C56.9491 113.46 57.9379 112.973 59.2547 112.884C60.2013 112.767 60.9839 112.452 61.7665 112.136C64.3626 110.649 65.398 108.113 66.5974 105.776C67.5907 103.611 66.8127 102.247 64.4273 101.884C62.7824 101.576 61.2594 101.837 59.9004 102.296C58.9538 102.413 58.0071 102.529 57.1448 101.906C56.4886 101.111 55.9122 101.255 55.4156 102.338ZM130.084 74.4565C131.284 72.1195 134.372 71.2282 135.614 68.5212C135.904 67.6097 136.359 66.897 135.866 66.3009C135.374 65.7048 134.714 66.5889 133.931 66.9042C131.705 68.419 129.972 70.5299 128.402 72.8395C127.741 73.7236 127.699 74.0936 128.191 74.6898C128.847 75.4846 129.302 74.7718 130.084 74.4565ZM75.9282 109.078C76.9967 109.53 78.0652 109.982 78.9276 110.605C79.6259 111.03 79.9961 111.058 80.6146 110.543C82.0579 109.344 83.3371 107.946 84.2883 106.15C81.5703 107.069 78.1586 105.884 75.9282 109.078ZM67.4493 95.0173C65.7291 92.0915 65.7713 91.7214 69.5668 87.8971C67.1393 87.9043 64.8337 88.4803 63.1933 86.4932C63.7185 90.0771 63.7095 93.4349 67.4493 95.0173ZM63.8162 130.2C68.3898 127.739 71.7729 124.257 75.5263 120.803C70.9949 122.894 67.4055 126.547 63.8162 130.2ZM79.1399 77.596C78.9337 77.7673 78.9337 77.7673 78.7275 77.9387C78.4371 78.8501 78.0623 80.5017 78.4326 80.5291C79.5011 80.9812 80.5696 81.4333 81.4319 82.0567C82.2943 82.6802 83.5314 81.6521 84.3982 80.5967C81.9286 80.9739 79.7494 80.4398 79.1399 77.596ZM83.8309 77.3828C79.927 75.6017 79.927 75.6017 79.0601 76.6572C81.1596 76.2526 81.6938 76.4786 81.7691 79.0963C82.0595 78.1849 82.6781 77.6708 83.8309 77.3828ZM69.2673 92.1663C70.378 92.2484 70.7858 93.5846 71.8588 92.3578C72.3133 91.6451 72.0274 90.8776 71.8634 90.6789C70.5887 90.3981 70.092 91.4809 69.2673 92.1663ZM136.467 72.5025C134.241 74.0173 133.084 75.9842 131.434 77.3549C133.412 76.3816 135.267 74.8394 136.467 72.5025ZM94.7658 96.1027C96.2889 95.8421 96.2889 95.8421 97.8164 93.9025C96.2934 94.1631 95.7967 95.2459 94.7658 96.1027ZM62.1517 121.867C63.4264 122.148 63.9185 122.744 64.5792 121.86C64.9916 121.517 64.8697 120.948 64.3354 120.722C63.6371 120.297 63.3467 121.209 62.1517 121.867ZM84.1694 89.1626C82.8526 89.2518 82.5666 88.4844 82.0324 88.2583C81.62 88.601 81.1655 89.3138 81.4936 89.7112C82.1919 90.1359 82.8105 89.6219 84.1694 89.1626Z" fill="#060606"></path> <path d="M72.7287 80.0405C72.9368 79.8675 72.4401 79.2655 72.8138 79.2931C73.1875 79.3208 73.1449 79.6945 73.1024 80.0682C72.8943 80.2412 72.7287 80.0405 72.7287 80.0405Z" fill="#FBFBFB"></path> <path d="M48.4154 108.773C48.4577 108.402 48.5 108.031 48.8714 108.058C49.2427 108.085 49.2005 108.457 48.9936 108.629C48.7868 108.801 48.7868 108.801 48.4154 108.773Z" fill="#FBFBFB"></path> <path d="M128.414 79.634C128.786 79.6615 128.786 79.6615 129.158 79.689C128.951 79.8612 128.744 80.0334 128.414 79.634C128.414 79.634 128.207 79.8062 128.414 79.634Z" fill="#FBFBFB"></path> <path d="M102.343 75.5914C104.702 72.9577 108.087 72.8334 111.758 73.4791C113.036 73.7608 113.944 74.0151 114.146 75.5277C114.555 76.8684 113.892 77.7554 112.858 78.615C110.79 80.3343 108.435 81.2834 105.714 80.5207C104.642 80.067 103.57 79.6134 102.372 80.2737C100.802 80.9065 100.393 79.5658 99.899 78.9677C99.2409 78.1702 100.233 77.6819 100.853 77.1661C100.938 76.4235 101.516 76.2791 102.343 75.5914ZM104.444 76.8699C106.63 77.4059 109.103 78.7119 111.091 76.0507C108.533 75.4873 106.305 75.3226 104.444 76.8699Z" fill="#060606"></path> <path d="M48.8574 123.294C49.2713 122.95 49.7274 122.234 50.4281 122.661C51.3357 122.915 51.0443 123.83 51.002 124.202C50.9974 125.887 51.3644 127.6 51.3599 129.285C51.2285 132.085 49.1595 133.805 46.5588 133.613C44.7012 133.476 43.7136 132.279 44.0896 130.621C44.964 127.876 46.7884 125.014 48.8574 123.294ZM48.7638 127.408C48.9707 127.236 48.8061 127.036 48.8061 127.036C48.8061 127.036 48.5992 127.208 48.3923 127.38C47.687 128.639 47.1886 129.726 46.8548 131.013C48.9616 130.606 49.2108 130.063 48.7638 127.408Z" fill="#060606"></path> <path d="M48.3661 127.378C48.572 127.207 48.7779 127.036 48.7779 127.036C49.1476 127.063 48.9417 127.234 48.7358 127.405C48.572 127.207 48.3661 127.378 48.3661 127.378Z" fill="#FBFBFB"></path> </g> </svg> 